<mxfile host="Electron" modified="2024-04-18T12:36:35.553Z" agent="Mozilla/5.0 (Windows NT 10.0; Win64; x64) AppleWebKit/537.36 (KHTML, like Gecko) draw.io/24.2.5 Chrome/120.0.6099.109 Electron/28.1.0 Safari/537.36" etag="g3IJ5okKHFclXl78GKsp" version="24.2.5" type="device">
  <diagram name="Page-1" id="vUU_emN7yJcRc83myupm">
    <mxGraphModel dx="988" dy="570" grid="1" gridSize="10" guides="1" tooltips="1" connect="1" arrows="1" fold="1" page="1" pageScale="1" pageWidth="850" pageHeight="1100" math="0" shadow="0">
      <root>
        <mxCell id="0" />
        <mxCell id="1" parent="0" />
        <mxCell id="Rs3vqMYlcIc5PFBU7NeD-34" value="" style="rounded=0;whiteSpace=wrap;html=1;fillColor=#fff2cc;strokeColor=#d6b656;" parent="1" vertex="1">
          <mxGeometry x="430" y="630" width="300" height="80" as="geometry" />
        </mxCell>
        <mxCell id="Rs3vqMYlcIc5PFBU7NeD-32" value="" style="rounded=0;whiteSpace=wrap;html=1;fillColor=#d5e8d4;strokeColor=#82b366;" parent="1" vertex="1">
          <mxGeometry x="270" y="310" width="140" height="400" as="geometry" />
        </mxCell>
        <mxCell id="Rs3vqMYlcIc5PFBU7NeD-30" value="" style="rounded=0;whiteSpace=wrap;html=1;fillColor=#f8cecc;strokeColor=#b85450;" parent="1" vertex="1">
          <mxGeometry x="430" y="470" width="300" height="80" as="geometry" />
        </mxCell>
        <mxCell id="Rs3vqMYlcIc5PFBU7NeD-1" value="" style="rounded=0;whiteSpace=wrap;html=1;fillColor=#dae8fc;strokeColor=#6c8ebf;" parent="1" vertex="1">
          <mxGeometry x="110" y="310" width="140" height="400" as="geometry" />
        </mxCell>
        <mxCell id="WBjCWTKnr4wZ1udg9dOo-30" style="edgeStyle=orthogonalEdgeStyle;rounded=0;orthogonalLoop=1;jettySize=auto;html=1;entryX=0;entryY=0.5;entryDx=0;entryDy=0;dashed=1;" parent="1" source="WBjCWTKnr4wZ1udg9dOo-1" target="WBjCWTKnr4wZ1udg9dOo-2" edge="1">
          <mxGeometry relative="1" as="geometry">
            <mxPoint x="100" y="650" as="targetPoint" />
            <Array as="points">
              <mxPoint x="660" y="740" />
              <mxPoint x="80" y="740" />
              <mxPoint x="80" y="670" />
            </Array>
          </mxGeometry>
        </mxCell>
        <mxCell id="WBjCWTKnr4wZ1udg9dOo-1" value="Motor" style="rounded=0;whiteSpace=wrap;html=1;" parent="1" vertex="1">
          <mxGeometry x="600" y="640" width="120" height="60" as="geometry" />
        </mxCell>
        <mxCell id="WBjCWTKnr4wZ1udg9dOo-2" value="Rotor positie" style="rounded=0;whiteSpace=wrap;html=1;" parent="1" vertex="1">
          <mxGeometry x="120" y="640" width="120" height="60" as="geometry" />
        </mxCell>
        <mxCell id="WBjCWTKnr4wZ1udg9dOo-3" value="Trottle" style="rounded=0;whiteSpace=wrap;html=1;" parent="1" vertex="1">
          <mxGeometry x="120" y="320" width="120" height="60" as="geometry" />
        </mxCell>
        <mxCell id="WBjCWTKnr4wZ1udg9dOo-4" value="Brake sensor" style="rounded=0;whiteSpace=wrap;html=1;" parent="1" vertex="1">
          <mxGeometry x="120" y="400" width="120" height="60" as="geometry" />
        </mxCell>
        <mxCell id="WBjCWTKnr4wZ1udg9dOo-5" value="Battery" style="rounded=0;whiteSpace=wrap;html=1;" parent="1" vertex="1">
          <mxGeometry x="440" y="480" width="120" height="60" as="geometry" />
        </mxCell>
        <mxCell id="WBjCWTKnr4wZ1udg9dOo-23" style="edgeStyle=orthogonalEdgeStyle;rounded=0;orthogonalLoop=1;jettySize=auto;html=1;exitX=1;exitY=0.5;exitDx=0;exitDy=0;entryX=0;entryY=0.5;entryDx=0;entryDy=0;strokeColor=#d6b656;" parent="1" source="WBjCWTKnr4wZ1udg9dOo-6" target="WBjCWTKnr4wZ1udg9dOo-1" edge="1">
          <mxGeometry relative="1" as="geometry" />
        </mxCell>
        <mxCell id="WBjCWTKnr4wZ1udg9dOo-6" value="Motor Driver" style="rounded=0;whiteSpace=wrap;html=1;" parent="1" vertex="1">
          <mxGeometry x="440" y="640" width="120" height="60" as="geometry" />
        </mxCell>
        <mxCell id="WBjCWTKnr4wZ1udg9dOo-8" value="Microcontroller" style="rounded=0;whiteSpace=wrap;html=1;" parent="1" vertex="1">
          <mxGeometry x="280" y="320" width="120" height="380" as="geometry" />
        </mxCell>
        <mxCell id="WBjCWTKnr4wZ1udg9dOo-9" value="Battery charger" style="rounded=0;whiteSpace=wrap;html=1;" parent="1" vertex="1">
          <mxGeometry x="600" y="480" width="120" height="60" as="geometry" />
        </mxCell>
        <mxCell id="WBjCWTKnr4wZ1udg9dOo-10" value="Snelheidsmeter" style="rounded=0;whiteSpace=wrap;html=1;" parent="1" vertex="1">
          <mxGeometry x="120" y="560" width="120" height="60" as="geometry" />
        </mxCell>
        <mxCell id="WBjCWTKnr4wZ1udg9dOo-35" style="edgeStyle=orthogonalEdgeStyle;rounded=0;orthogonalLoop=1;jettySize=auto;html=1;dashed=1;" parent="1" source="WBjCWTKnr4wZ1udg9dOo-11" edge="1">
          <mxGeometry relative="1" as="geometry">
            <mxPoint x="120" y="350" as="targetPoint" />
            <Array as="points">
              <mxPoint x="500" y="280" />
              <mxPoint x="80" y="280" />
              <mxPoint x="80" y="350" />
            </Array>
          </mxGeometry>
        </mxCell>
        <mxCell id="WBjCWTKnr4wZ1udg9dOo-11" value="Display" style="rounded=0;whiteSpace=wrap;html=1;" parent="1" vertex="1">
          <mxGeometry x="440" y="320" width="120" height="60" as="geometry" />
        </mxCell>
        <mxCell id="WBjCWTKnr4wZ1udg9dOo-12" value="Trapkrachtsensor" style="rounded=0;whiteSpace=wrap;html=1;" parent="1" vertex="1">
          <mxGeometry x="120" y="480" width="120" height="60" as="geometry" />
        </mxCell>
        <mxCell id="WBjCWTKnr4wZ1udg9dOo-31" value="" style="endArrow=classic;html=1;rounded=0;entryX=0;entryY=0.5;entryDx=0;entryDy=0;dashed=1;" parent="1" target="WBjCWTKnr4wZ1udg9dOo-10" edge="1">
          <mxGeometry width="50" height="50" relative="1" as="geometry">
            <mxPoint x="80" y="670" as="sourcePoint" />
            <mxPoint x="100" y="590" as="targetPoint" />
            <Array as="points">
              <mxPoint x="80" y="590" />
            </Array>
          </mxGeometry>
        </mxCell>
        <mxCell id="WBjCWTKnr4wZ1udg9dOo-36" value="" style="endArrow=classic;html=1;rounded=0;dashed=1;" parent="1" edge="1">
          <mxGeometry width="50" height="50" relative="1" as="geometry">
            <mxPoint x="80" y="350" as="sourcePoint" />
            <mxPoint x="120" y="430" as="targetPoint" />
            <Array as="points">
              <mxPoint x="80" y="430" />
            </Array>
          </mxGeometry>
        </mxCell>
        <mxCell id="WBjCWTKnr4wZ1udg9dOo-37" value="" style="endArrow=classic;html=1;rounded=0;dashed=1;" parent="1" edge="1">
          <mxGeometry width="50" height="50" relative="1" as="geometry">
            <mxPoint x="80" y="430" as="sourcePoint" />
            <mxPoint x="120" y="510" as="targetPoint" />
            <Array as="points">
              <mxPoint x="80" y="510" />
            </Array>
          </mxGeometry>
        </mxCell>
        <mxCell id="Rs3vqMYlcIc5PFBU7NeD-2" value="&lt;font color=&quot;#6c8ebf&quot;&gt;Sensoren&lt;/font&gt;" style="text;html=1;align=center;verticalAlign=middle;resizable=0;points=[];autosize=1;strokeColor=none;fillColor=none;" parent="1" vertex="1">
          <mxGeometry x="145" y="280" width="70" height="30" as="geometry" />
        </mxCell>
        <mxCell id="Rs3vqMYlcIc5PFBU7NeD-3" value="Mechanische feedbackloop" style="text;html=1;align=center;verticalAlign=middle;resizable=0;points=[];autosize=1;strokeColor=none;fillColor=none;" parent="1" vertex="1">
          <mxGeometry x="270" y="740" width="170" height="30" as="geometry" />
        </mxCell>
        <mxCell id="Rs3vqMYlcIc5PFBU7NeD-5" value="Menselijke feedbackloop" style="text;html=1;align=center;verticalAlign=middle;resizable=0;points=[];autosize=1;strokeColor=none;fillColor=none;" parent="1" vertex="1">
          <mxGeometry x="210" y="250" width="150" height="30" as="geometry" />
        </mxCell>
        <mxCell id="Rs3vqMYlcIc5PFBU7NeD-8" value="" style="endArrow=classic;html=1;rounded=0;strokeColor=#b85450;" parent="1" edge="1">
          <mxGeometry width="50" height="50" relative="1" as="geometry">
            <mxPoint x="280" y="359.64" as="sourcePoint" />
            <mxPoint x="240" y="359.64" as="targetPoint" />
          </mxGeometry>
        </mxCell>
        <mxCell id="Rs3vqMYlcIc5PFBU7NeD-11" value="" style="endArrow=classic;html=1;rounded=0;strokeColor=#6c8ebf;" parent="1" edge="1">
          <mxGeometry width="50" height="50" relative="1" as="geometry">
            <mxPoint x="240" y="339.88" as="sourcePoint" />
            <mxPoint x="280" y="339.88" as="targetPoint" />
          </mxGeometry>
        </mxCell>
        <mxCell id="Rs3vqMYlcIc5PFBU7NeD-12" value="" style="endArrow=classic;html=1;rounded=0;strokeColor=#b85450;" parent="1" edge="1">
          <mxGeometry width="50" height="50" relative="1" as="geometry">
            <mxPoint x="280" y="439.64" as="sourcePoint" />
            <mxPoint x="240" y="439.64" as="targetPoint" />
          </mxGeometry>
        </mxCell>
        <mxCell id="Rs3vqMYlcIc5PFBU7NeD-13" value="" style="endArrow=classic;html=1;rounded=0;strokeColor=#6c8ebf;" parent="1" edge="1">
          <mxGeometry width="50" height="50" relative="1" as="geometry">
            <mxPoint x="240" y="419.88" as="sourcePoint" />
            <mxPoint x="280" y="419.88" as="targetPoint" />
          </mxGeometry>
        </mxCell>
        <mxCell id="Rs3vqMYlcIc5PFBU7NeD-14" value="" style="endArrow=classic;html=1;rounded=0;strokeColor=#b85450;" parent="1" edge="1">
          <mxGeometry width="50" height="50" relative="1" as="geometry">
            <mxPoint x="280" y="519.64" as="sourcePoint" />
            <mxPoint x="240" y="519.64" as="targetPoint" />
          </mxGeometry>
        </mxCell>
        <mxCell id="Rs3vqMYlcIc5PFBU7NeD-15" value="" style="endArrow=classic;html=1;rounded=0;strokeColor=#6c8ebf;" parent="1" edge="1">
          <mxGeometry width="50" height="50" relative="1" as="geometry">
            <mxPoint x="240" y="499.88" as="sourcePoint" />
            <mxPoint x="280" y="499.88" as="targetPoint" />
          </mxGeometry>
        </mxCell>
        <mxCell id="Rs3vqMYlcIc5PFBU7NeD-16" value="" style="endArrow=classic;html=1;rounded=0;strokeColor=#b85450;" parent="1" edge="1">
          <mxGeometry width="50" height="50" relative="1" as="geometry">
            <mxPoint x="280" y="599.64" as="sourcePoint" />
            <mxPoint x="240" y="599.64" as="targetPoint" />
          </mxGeometry>
        </mxCell>
        <mxCell id="Rs3vqMYlcIc5PFBU7NeD-17" value="" style="endArrow=classic;html=1;rounded=0;strokeColor=#6c8ebf;" parent="1" edge="1">
          <mxGeometry width="50" height="50" relative="1" as="geometry">
            <mxPoint x="240" y="579.88" as="sourcePoint" />
            <mxPoint x="280" y="579.88" as="targetPoint" />
          </mxGeometry>
        </mxCell>
        <mxCell id="Rs3vqMYlcIc5PFBU7NeD-21" value="" style="endArrow=classic;html=1;rounded=0;strokeColor=#b85450;" parent="1" edge="1">
          <mxGeometry width="50" height="50" relative="1" as="geometry">
            <mxPoint x="280" y="679.64" as="sourcePoint" />
            <mxPoint x="240" y="679.64" as="targetPoint" />
          </mxGeometry>
        </mxCell>
        <mxCell id="Rs3vqMYlcIc5PFBU7NeD-22" value="" style="endArrow=classic;html=1;rounded=0;strokeColor=#6c8ebf;" parent="1" edge="1">
          <mxGeometry width="50" height="50" relative="1" as="geometry">
            <mxPoint x="240" y="659.88" as="sourcePoint" />
            <mxPoint x="280" y="659.88" as="targetPoint" />
          </mxGeometry>
        </mxCell>
        <mxCell id="Rs3vqMYlcIc5PFBU7NeD-24" value="" style="endArrow=classic;html=1;rounded=0;strokeColor=#b85450;" parent="1" edge="1">
          <mxGeometry width="50" height="50" relative="1" as="geometry">
            <mxPoint x="440" y="509.76" as="sourcePoint" />
            <mxPoint x="400" y="509.76" as="targetPoint" />
          </mxGeometry>
        </mxCell>
        <mxCell id="Rs3vqMYlcIc5PFBU7NeD-25" value="" style="endArrow=classic;html=1;rounded=0;strokeColor=#b85450;" parent="1" edge="1">
          <mxGeometry width="50" height="50" relative="1" as="geometry">
            <mxPoint x="600" y="509.76" as="sourcePoint" />
            <mxPoint x="560" y="509.76" as="targetPoint" />
          </mxGeometry>
        </mxCell>
        <mxCell id="Rs3vqMYlcIc5PFBU7NeD-26" value="" style="endArrow=classic;html=1;rounded=0;strokeColor=#b85450;" parent="1" edge="1">
          <mxGeometry width="50" height="50" relative="1" as="geometry">
            <mxPoint x="499.76" y="540" as="sourcePoint" />
            <mxPoint x="499.76" y="640" as="targetPoint" />
          </mxGeometry>
        </mxCell>
        <mxCell id="Rs3vqMYlcIc5PFBU7NeD-28" value="" style="endArrow=classic;html=1;rounded=0;strokeColor=#82b366;" parent="1" edge="1">
          <mxGeometry width="50" height="50" relative="1" as="geometry">
            <mxPoint x="400" y="340.00000000000006" as="sourcePoint" />
            <mxPoint x="440" y="340.00000000000006" as="targetPoint" />
          </mxGeometry>
        </mxCell>
        <mxCell id="Rs3vqMYlcIc5PFBU7NeD-29" value="" style="endArrow=classic;html=1;rounded=0;strokeColor=#ba2626;" parent="1" edge="1">
          <mxGeometry width="50" height="50" relative="1" as="geometry">
            <mxPoint x="400" y="360" as="sourcePoint" />
            <mxPoint x="440" y="360" as="targetPoint" />
          </mxGeometry>
        </mxCell>
        <mxCell id="Rs3vqMYlcIc5PFBU7NeD-31" value="&lt;font color=&quot;#ba2626&quot;&gt;Voeding&lt;/font&gt;" style="text;html=1;align=center;verticalAlign=middle;resizable=0;points=[];autosize=1;strokeColor=none;fillColor=none;" parent="1" vertex="1">
          <mxGeometry x="545" y="440" width="70" height="30" as="geometry" />
        </mxCell>
        <mxCell id="Rs3vqMYlcIc5PFBU7NeD-33" value="&lt;font color=&quot;#82b366&quot;&gt;Signal processing&lt;/font&gt;" style="text;html=1;align=center;verticalAlign=middle;resizable=0;points=[];autosize=1;strokeColor=none;fillColor=none;" parent="1" vertex="1">
          <mxGeometry x="280" y="280" width="120" height="30" as="geometry" />
        </mxCell>
        <mxCell id="Rs3vqMYlcIc5PFBU7NeD-35" value="&lt;font color=&quot;#d6b656&quot;&gt;Drive&lt;/font&gt;" style="text;html=1;align=center;verticalAlign=middle;resizable=0;points=[];autosize=1;strokeColor=none;fillColor=none;" parent="1" vertex="1">
          <mxGeometry x="555" y="600" width="50" height="30" as="geometry" />
        </mxCell>
        <mxCell id="L63G45aUu8d_pBlQVpYR-3" value="" style="endArrow=classic;html=1;rounded=0;strokeColor=#82b366;" edge="1" parent="1">
          <mxGeometry width="50" height="50" relative="1" as="geometry">
            <mxPoint x="400" y="669.8" as="sourcePoint" />
            <mxPoint x="440" y="669.8" as="targetPoint" />
          </mxGeometry>
        </mxCell>
      </root>
    </mxGraphModel>
  </diagram>
</mxfile>
